<svg width="16" height="16" viewBox="0 0 16 16" fill="none" xmlns="http://www.w3.org/2000/svg">
<g clip-path="url(#clip0)">
<path d="M4 12C4 12.3667 4.3 12.6667 4.66667 12.6667H5.33333V15C5.33333 15.5533 5.78 16 6.33333 16C6.88667 16 7.33333 15.5533 7.33333 15V12.6667H8.66667V15C8.66667 15.5533 9.11333 16 9.66667 16C10.22 16 10.6667 15.5533 10.6667 15V12.6667H11.3333C11.7 12.6667 12 12.3667 12 12V5.33333H4V12ZM2.33333 5.33333C1.78 5.33333 1.33333 5.78 1.33333 6.33333V11C1.33333 11.5533 1.78 12 2.33333 12C2.88667 12 3.33333 11.5533 3.33333 11V6.33333C3.33333 5.78 2.88667 5.33333 2.33333 5.33333ZM13.6667 5.33333C13.1133 5.33333 12.6667 5.78 12.6667 6.33333V11C12.6667 11.5533 13.1133 12 13.6667 12C14.22 12 14.6667 11.5533 14.6667 11V6.33333C14.6667 5.78 14.22 5.33333 13.6667 5.33333ZM10.3533 1.44L11.22 0.573333C11.3533 0.44 11.3533 0.233333 11.22 0.1C11.0867 -0.0333333 10.88 -0.0333333 10.7467 0.1L9.76 1.08667C9.23333 0.82 8.63333 0.666667 8 0.666667C7.36 0.666667 6.76 0.82 6.22667 1.08667L5.23333 0.1C5.1 -0.0333333 4.89333 -0.0333333 4.76 0.1C4.62667 0.233333 4.62667 0.44 4.76 0.573333L5.63333 1.44667C4.64667 2.17333 4 3.34 4 4.66667H12C12 3.34 11.3533 2.16667 10.3533 1.44ZM6.66667 3.33333H6V2.66667H6.66667V3.33333ZM10 3.33333H9.33333V2.66667H10V3.33333Z" fill="white"/>
</g>
<defs>
<clipPath id="clip0">
<rect width="16" height="16" fill="white"/>
</clipPath>
</defs>
</svg>
